<?xml version="1.0" encoding="UTF-8"?>
<svg id="Layer_2" data-name="Layer 2" xmlns="http://www.w3.org/2000/svg" viewBox="0 0 301 188">
  <defs>
    <style>
      .cls-1, .cls-2 {
        stroke-width: 0px;
      }

      .cls-2 {
        fill: #29abe2;
      }
    </style>
  </defs>
  <g id="Layer_1-2" data-name="Layer 1">
    <g>
      <g>
        <rect class="cls-2" x="107" width="87" height="87"/>
        <path class="cls-1" d="m152.74,29.18h-19.74v-9.18h33.48v9.04l-20.43,28.86h21.19v9.18h-35v-9.04l20.5-28.85Z"/>
      </g>
      <g>
        <rect class="cls-2" x="214" y="101" width="87" height="87"/>
        <path class="cls-1" d="m252.18,121.31c5.34,0,9.92.94,13.74,2.83s6.74,4.6,8.77,8.15c2.02,3.54,3.04,7.75,3.04,12.63s-1.01,9.01-3.04,12.53c-2.02,3.52-4.95,6.22-8.77,8.11s-8.4,2.83-13.74,2.83h-16.43v-47.08h16.43Zm9.7,34.17c2.28-2.53,3.42-6.05,3.42-10.56s-1.14-8.11-3.42-10.66c-2.28-2.55-5.44-3.83-9.49-3.83h-4.97v28.85h4.97c4.05,0,7.21-1.27,9.49-3.8Z"/>
      </g>
      <g>
        <rect class="cls-2" x="107" y="101" width="87" height="87"/>
        <path class="cls-1" d="m130.78,157.48l10.29-3.45c.6,2.07,1.69,3.65,3.28,4.73,1.59,1.08,3.53,1.62,5.83,1.62s4.23-.44,5.52-1.31,1.93-2.12,1.93-3.73c0-2.53-1.61-4.05-4.83-4.56l-7.18-1.17c-4-.64-7.24-2.16-9.7-4.56-2.46-2.39-3.69-5.52-3.69-9.39,0-2.99.7-5.64,2.11-7.94,1.4-2.3,3.46-4.1,6.18-5.39s5.96-1.93,9.73-1.93c4.74,0,8.56.92,11.46,2.76s4.9,4.21,6.01,7.11l-9.87,4.14c-1.66-3.41-4.16-5.11-7.53-5.11-1.98,0-3.58.46-4.8,1.38s-1.83,2.16-1.83,3.73c0,2.48,1.66,4.03,4.97,4.62l8.28,1.38c3.77.64,6.77,2.14,8.97,4.49,2.21,2.35,3.31,5.43,3.31,9.25,0,4.65-1.63,8.33-4.9,11.05s-8.01,4.07-14.22,4.07c-5.62,0-10.02-1.07-13.22-3.21s-5.24-5-6.11-8.59Z"/>
      </g>
      <g>
        <rect class="cls-2" y="101" width="87" height="87"/>
        <path class="cls-1" d="m30.49,161.61c-3.48-2.05-6.16-4.9-8.04-8.56-1.89-3.66-2.83-7.88-2.83-12.67s.98-9.16,2.93-12.84,4.74-6.54,8.35-8.56,7.79-3.04,12.53-3.04,8.91,1.01,12.5,3.04c3.59,2.02,6.36,4.88,8.32,8.56,1.96,3.68,2.93,7.96,2.93,12.84,0,4.19-.76,7.95-2.28,11.29-1.52,3.34-3.68,6.06-6.49,8.18l-8.7,3.18,7.11,2.35,6.83,8.63h-14.01l-6.97-9.18c-4.65-.09-8.71-1.16-12.18-3.21Zm12.94-6.52c3.31,0,6.02-1.3,8.11-3.9,2.09-2.6,3.14-6.2,3.14-10.8s-1.05-8.2-3.14-10.8c-2.09-2.6-4.8-3.9-8.11-3.9s-6.1,1.3-8.21,3.9c-2.12,2.6-3.18,6.2-3.18,10.8s1.06,8.2,3.18,10.8c2.12,2.6,4.86,3.9,8.21,3.9Z"/>
      </g>
    </g>
  </g>
</svg>