<?xml version="1.0" encoding="UTF-8"?>
<svg id="Layer_2" data-name="Layer 2" xmlns="http://www.w3.org/2000/svg" viewBox="0 0 268.99 288.17">
  <defs>
    <style>
      .cls-1 {
        stroke-width: 0px;
      }
    </style>
  </defs>
  <g id="Layer_1-2" data-name="Layer 1">
    <g>
      <path class="cls-1" d="m118.06,87.36c-1.06-.6-2.27-1.03-3.14-1.84-3.68-3.4-6.68-7.32-9.25-11.66-2.28-3.87-5.12-7.41-7.65-11.13-6.38-9.38-12.67-18.82-19.11-28.16-4.72-6.84-9.63-13.54-14.43-20.32-1.62-2.29-3.42-4.51-4.7-6.99-2.53-4.9-6.94-4.9-11.38-4.66-3.45.19-5.29,2.32-6.77,5.54-2.65,5.79-3.47,11.78-2.57,17.84,1.06,7.12,2.72,14.17,4.54,21.14.9,3.46,1.92,6.89,3.97,10.1,2.08,3.27,2.84,7.37,4.36,11.03.77,1.86,1.92,3.57,2.92,5.33,4.5,7.96,8.98,15.94,13.53,23.87,3.03,5.28,6.18,10.48,9.25,15.74,2.34,4.02,4.79,8,6.9,12.15,2.18,4.29,3.99,8.75,5.98,13.14,1.6,3.52,3.1,7.09,4.86,10.52,2.13,4.16,2.45,8.64,2.54,13.12.09,4.1-.07,8.21-.35,12.3-.37,5.44-2.68,10.31-6.09,14.3-2.05,2.4-5.28,3.95-8.79,4.49-9.62,1.47-18.71-.56-27.74-3.62-7.23-2.44-14.52-4.72-21.86-6.79-5.06-1.43-9.86.21-14.65,1.96-6.07,2.22-10.68,6.04-13.93,11.55-2.53,4.3-2.15,3.69,1.17,6.62,4.26,3.75,8.73,7.26,13.22,10.74,6.5,5.04,13.05,10.01,19.67,14.89,2.12,1.56,5.09,1.97,6.25,4.71.68,0,1.47-.25,1.87.04,3.21,2.29,6.27,4.8,9.53,7.02,2.75,1.88,5.74,3.4,8.54,5.2,4.38,2.81,8.97,5.29,13.36,8.01,4.56,2.83,9.48,5.04,13.87,8.17,1.97,1.41,4.63,1.82,6.87,2.91,2,.97,3.82,2.31,5.77,3.39,1.47.82,3.01,1.53,4.55,2.21,4.1,1.81,8.18,3.67,12.34,5.35,2.72,1.09,5.57,1.87,8.34,2.84,1.07.37,2.07,1.05,3.16,1.29,4.61,1.02,9.25,1.94,13.88,2.88,3.09.62,6.17,1.5,9.29,1.75,5.29.42,10.63.75,15.92.52,4.15-.19,8.47-.71,12.34-2.11,6.15-2.24,12.11-5.08,17.91-8.13,6.58-3.46,13.02-7.23,19.28-11.24,5.08-3.26,9.78-7.09,14.68-10.63,5.56-4.02,10.2-8.98,13.61-14.86,3.24-5.58,6.05-11.44,8.73-17.31,1.85-4.04,3.38-8.27,4.67-12.53.82-2.71,1.08-5.61,1.31-8.46.57-7.04,1.51-14.11,1.3-21.14-.23-7.88-1.43-15.75-2.45-23.58-.56-4.24-1.41-8.47-2.54-12.58-1.37-4.98-3.06-9.88-4.84-14.73-2.2-6.01-4.55-11.96-6.97-17.88-4.05-9.93-8.48-19.68-14.88-28.35-3.13-4.23-7.46-7.15-11.91-9.89-3.07-1.89-5.91-4.18-9.03-5.98-3.41-1.97-7.06-3.73-11.15-3.04-2.45.41-4.87,1.27-7.15,2.28-3.61,1.61-6.49.06-9.23-1.85-2.97-2.06-5.65-4.55-8.64-6.58-2.63-1.79-5.53-3.32-8.89-2.38-1.17.33-2.17,1.27-3.67,2.2-.27-.27-1.65-1.11-1.54-1.65.22-1.05,1.11-2.12,1.99-2.85,1.67-1.4,3.59-1.46,5.79-1.04,5.86,1.12,10.45,4.35,14.57,8.34,3.24,3.13,6.94,3.78,11.19,1.98,5.22-2.21,10.08-2.36,15.66.36,6.15,3,11.4,7.12,16.96,10.83,6.71,4.48,11.05,11.15,14.68,18.23,2.24,4.36,4.47,8.74,6.3,13.28,3.79,9.38,7.47,18.82,10.89,28.34,3.2,8.9,5.24,18.17,6.47,27.51,1.07,8.14,1.12,16.42,1.36,24.65.29,9.96-1.55,19.71-4.58,29.11-2.12,6.59-5.38,12.82-8.13,19.2-2.38,5.52-5.37,10.71-9.71,14.87-4.73,4.53-9.62,8.94-14.82,12.9-5.25,4-10.83,7.64-16.53,10.97-6.25,3.65-12.71,6.99-19.27,10.06-5,2.35-10.17,4.51-15.49,5.93-3.76,1.01-7.89.7-11.86.87-2.84.12-5.72.36-8.53.05-5-.55-9.98-1.35-14.92-2.28-4.55-.86-9.13-1.76-13.54-3.16-5.55-1.76-11.04-3.83-16.37-6.17-6.5-2.86-12.86-6.05-19.18-9.29-5.21-2.67-10.31-5.56-15.39-8.46-5.01-2.87-9.99-5.8-14.89-8.85-4.09-2.55-8.07-5.29-12.08-7.97-7.3-4.88-14.72-9.61-21.86-14.73-6.23-4.47-12.14-9.39-18.17-14.15-4.01-3.17-7.98-6.4-11.95-9.61-1.31-1.06-2.04-2.25-1.53-4.14,1.29-4.85,4.38-8.53,7.76-11.91,1.6-1.6,4.2-2.16,5.94-3.67,2.48-2.15,5.37-3.18,8.41-3.69,3.09-.52,6.29-.85,9.41-.68,7.93.42,15.04,3.99,22.46,6.34,4.37,1.39,8.66,2.82,13.29,3.56,3.52.56,7.06,1.2,10.53,1.02,6.21-.34,10.5-2.28,13.8-8.5,3.91-7.38,3.3-15.07,2.17-22.74-.8-5.38-2.61-10.6-3.87-15.92-1.3-5.5-4.34-10.2-6.77-15.18-1.91-3.91-4.1-7.7-6.37-11.43-1.57-2.57-3.64-4.83-5.2-7.41-3.88-6.41-7.62-12.9-11.35-19.4-2.8-4.87-5.62-9.74-8.19-14.73-2.3-4.47-4.61-8.98-6.33-13.69-2.4-6.56-4.19-13.34-6.35-20-2.28-7.01-3.15-14.26-3.36-21.54-.12-4.18.54-8.44,2.92-12.18.75-1.17,1.12-2.58,1.85-3.78C42.74.66,45.93.22,48.99.05c2.33-.13,4.86,0,7,.82,2.02.77,4.05,2.26,5.37,3.98,4.17,5.45,8.06,11.12,11.96,16.78,3.94,5.71,7.74,11.51,11.63,17.25,2.08,3.06,4.27,6.04,6.33,9.11,4.18,6.23,8.2,12.56,12.48,18.71,3.76,5.4,7.79,10.63,11.72,15.92.98,1.33,2.02,2.62,3.03,3.92-.15.28-.3.55-.45.83Z"/>
      <path class="cls-1" d="m115.66,79.46c.13-7.7,1.93-14.38,7.3-19.35,2.25-2.08,5.46-3.3,8.44-4.36,8.7-3.1,17.11-.73,25.49,1.8.9.27,2.05.21,2.96-.09,1.83-.59,2.92-.13,3.42,1.86-2.31,2.45-5.26,1.99-7.94,1.14-6.17-1.93-12.45-3.59-18.87-2.88-4.31.48-8.59,2-11.92,5.3-2.58,2.56-3.54,5.77-4.45,9.12-.54,1.97-1.52,3.83-2.46,5.66-.33.65-1.13,1.06-1.96,1.79Z"/>
    </g>
  </g>
</svg>